<svg xmlns="http://www.w3.org/2000/svg" viewBox="0 0 480 320">
<rect width="480" height="320" rx="18" fill="#EAF2FB"/>
<!-- camara -->
<g transform="translate(28,130)"><rect x="0" y="0" width="56" height="38" rx="7" fill="#08447C"/><circle cx="28" cy="19" r="11" fill="#2899F9"/><polygon points="56,8 78,-2 78,40 56,30" fill="#08447C"/></g>
<!-- antena 5G -->
<g transform="translate(180,60)"><rect x="16" y="60" width="8" height="120" fill="#08447C"/><polygon points="20,60 6,180 34,180" fill="#08447C"/>
<g stroke="#2899F9" stroke-width="4" fill="none"><path d="M40 40 a40 40 0 0 1 0 60"/><path d="M52 28 a58 58 0 0 1 0 84"/><path d="M0 40 a40 40 0 0 0 0 60"/><path d="M-12 28 a58 58 0 0 0 0 84"/></g>
<text x="20" y="205" font-family="Arial" font-size="16" font-weight="bold" fill="#F39200" text-anchor="middle">5G</text></g>
<!-- edge server -->
<g transform="translate(300,120)"><rect x="0" y="0" width="60" height="70" rx="6" fill="#08447C"/><g fill="#2899F9"><rect x="8" y="10" width="44" height="12" rx="2"/><rect x="8" y="28" width="44" height="12" rx="2"/><rect x="8" y="46" width="44" height="12" rx="2"/></g><text x="30" y="88" font-family="Arial" font-size="12" font-weight="bold" fill="#08447C" text-anchor="middle">EDGE</text></g>
<!-- monitor -->
<g transform="translate(398,128)"><rect x="0" y="0" width="60" height="44" rx="5" fill="#08447C"/><rect x="6" y="6" width="48" height="32" rx="2" fill="#CFE0F2"/></g>
<g stroke="#08447C" stroke-width="3" stroke-dasharray="6 5" fill="none"><path d="M108 150 H176"/><path d="M232 150 H300"/><path d="M360 155 H398"/></g>
</svg>
