<svg xmlns="http://www.w3.org/2000/svg" viewBox="0 0 480 300"><defs><marker id="a" markerWidth="9" markerHeight="9" refX="7" refY="4.5" orient="auto"><path d="M0,0 L9,4.5 L0,9 z" fill="#08447C"/></marker></defs><rect width="480" height="300" rx="14" fill="#EAF2FB"/><rect x="16" y="120" width="96" height="60" rx="9" fill="#FFFFFF" stroke="#08447C" stroke-width="2"/><text x="64.0" y="155.0" font-family="Arial" font-size="14" font-weight="bold" fill="#08447C" text-anchor="middle">Cámara</text><line x1="112" y1="150" x2="150" y2="150" stroke="#2899F9" stroke-width="2.5" marker-end="url(#a)"/><g stroke="#2899F9" stroke-width="4" fill="none"><path d="M182 118 a30 30 0 0 1 0 64"/><path d="M196 106 a44 44 0 0 1 0 88"/></g><line x1="170" y1="110" x2="170" y2="190" stroke="#08447C" stroke-width="6"/><text x="170" y="212" font-family="Arial" font-size="15" font-weight="bold" fill="#F39200" text-anchor="middle">5G</text><line x1="210" y1="150" x2="250" y2="150" stroke="#2899F9" stroke-width="2.5" marker-end="url(#a)"/><rect x="250" y="120" width="90" height="60" rx="9" fill="#08447C" stroke="#08447C" stroke-width="2"/><text x="295.0" y="155.0" font-family="Arial" font-size="14" font-weight="bold" fill="#fff" text-anchor="middle">Edge</text><line x1="340" y1="150" x2="378" y2="150" stroke="#2899F9" stroke-width="2.5" marker-end="url(#a)"/><rect x="380" y="120" width="86" height="60" rx="9" fill="#FFFFFF" stroke="#08447C" stroke-width="2"/><text x="423.0" y="155.0" font-family="Arial" font-size="13" font-weight="bold" fill="#08447C" text-anchor="middle">Control</text></svg>