<svg xmlns="http://www.w3.org/2000/svg" viewBox="0 0 480 300"><defs><marker id="a" markerWidth="9" markerHeight="9" refX="7" refY="4.5" orient="auto"><path d="M0,0 L9,4.5 L0,9 z" fill="#08447C"/></marker></defs><rect width="480" height="300" rx="14" fill="#EAF2FB"/><rect x="20" y="60" width="130" height="44" rx="9" fill="#FFFFFF" stroke="#08447C" stroke-width="2"/><text x="85.0" y="87.0" font-family="Arial" font-size="13" font-weight="bold" fill="#08447C" text-anchor="middle">Sede 1</text><rect x="20" y="128" width="130" height="44" rx="9" fill="#FFFFFF" stroke="#08447C" stroke-width="2"/><text x="85.0" y="155.0" font-family="Arial" font-size="13" font-weight="bold" fill="#08447C" text-anchor="middle">Sede 2</text><rect x="20" y="196" width="130" height="44" rx="9" fill="#FFFFFF" stroke="#08447C" stroke-width="2"/><text x="85.0" y="223.0" font-family="Arial" font-size="13" font-weight="bold" fill="#08447C" text-anchor="middle">Sede 3</text><line x1="152" y1="82" x2="210" y2="140" stroke="#08447C" stroke-width="2.5" marker-end="url(#a)"/><line x1="152" y1="150" x2="210" y2="150" stroke="#08447C" stroke-width="2.5" marker-end="url(#a)"/><line x1="152" y1="218" x2="210" y2="160" stroke="#08447C" stroke-width="2.5" marker-end="url(#a)"/><ellipse cx="255" cy="150" rx="52" ry="30" fill="#2899F9"/><text x="255" y="155" font-family="Arial" font-size="12" font-weight="bold" fill="#fff" text-anchor="middle">Nube</text><line x1="305" y1="150" x2="345" y2="150" stroke="#08447C" stroke-width="2.5" marker-end="url(#a)"/><rect x="348" y="116" width="120" height="68" rx="9" fill="#08447C" stroke="#08447C" stroke-width="2"/><text x="408.0" y="147.0" font-family="Arial" font-size="15" font-weight="bold" fill="#fff" text-anchor="middle">Centro</text><text x="408.0" y="163.0" font-family="Arial" font-size="11" fill="#fff" text-anchor="middle">Tokio</text></svg>